<mxfile host="app.diagrams.net" modified="2022-08-10T08:55:08.323Z" agent="5.0 (Windows NT 10.0; Win64; x64) AppleWebKit/537.36 (KHTML, like Gecko) Chrome/104.0.0.0 Safari/537.36" etag="VMTiN9EtAeA0ukahMl8K" version="20.2.3" type="github">
  <diagram id="GwWV-2D5fkkrKvFTj4aL" name="S3 Static website">
    <mxGraphModel dx="1220" dy="1077" grid="1" gridSize="10" guides="1" tooltips="1" connect="1" arrows="1" fold="1" page="1" pageScale="1" pageWidth="827" pageHeight="583" math="0" shadow="0">
      <root>
        <mxCell id="0" />
        <mxCell id="1" parent="0" />
        <mxCell id="gROJfCUegqSwpk9ElWU_-1" value="AWS Cloud" style="points=[[0,0],[0.25,0],[0.5,0],[0.75,0],[1,0],[1,0.25],[1,0.5],[1,0.75],[1,1],[0.75,1],[0.5,1],[0.25,1],[0,1],[0,0.75],[0,0.5],[0,0.25]];outlineConnect=0;gradientColor=none;html=1;whiteSpace=wrap;fontSize=12;fontStyle=1;container=1;pointerEvents=0;collapsible=0;recursiveResize=0;shape=mxgraph.aws4.group;grIcon=mxgraph.aws4.group_aws_cloud_alt;strokeColor=#232F3E;fillColor=none;verticalAlign=top;align=left;spacingLeft=30;fontColor=#232F3E;dashed=0;" parent="1" vertex="1">
          <mxGeometry x="14" y="40" width="616" height="480" as="geometry" />
        </mxCell>
        <mxCell id="gROJfCUegqSwpk9ElWU_-2" value="Region" style="points=[[0,0],[0.25,0],[0.5,0],[0.75,0],[1,0],[1,0.25],[1,0.5],[1,0.75],[1,1],[0.75,1],[0.5,1],[0.25,1],[0,1],[0,0.75],[0,0.5],[0,0.25]];outlineConnect=0;gradientColor=none;html=1;whiteSpace=wrap;fontSize=12;fontStyle=1;container=1;pointerEvents=0;collapsible=0;recursiveResize=0;shape=mxgraph.aws4.group;grIcon=mxgraph.aws4.group_region;strokeColor=#147EBA;fillColor=none;verticalAlign=top;align=left;spacingLeft=30;fontColor=#147EBA;dashed=1;" parent="gROJfCUegqSwpk9ElWU_-1" vertex="1">
          <mxGeometry x="40" y="40" width="540" height="400" as="geometry" />
        </mxCell>
        <mxCell id="gROJfCUegqSwpk9ElWU_-3" value="VPC" style="points=[[0,0],[0.25,0],[0.5,0],[0.75,0],[1,0],[1,0.25],[1,0.5],[1,0.75],[1,1],[0.75,1],[0.5,1],[0.25,1],[0,1],[0,0.75],[0,0.5],[0,0.25]];outlineConnect=0;gradientColor=none;html=1;whiteSpace=wrap;fontSize=12;fontStyle=1;container=1;pointerEvents=0;collapsible=0;recursiveResize=0;shape=mxgraph.aws4.group;grIcon=mxgraph.aws4.group_vpc;strokeColor=#248814;fillColor=none;verticalAlign=top;align=left;spacingLeft=30;fontColor=#AAB7B8;dashed=0;" parent="gROJfCUegqSwpk9ElWU_-2" vertex="1">
          <mxGeometry x="40" y="40" width="460" height="320" as="geometry" />
        </mxCell>
        <mxCell id="gROJfCUegqSwpk9ElWU_-5" value="S3 Standard" style="sketch=0;points=[[0,0,0],[0.25,0,0],[0.5,0,0],[0.75,0,0],[1,0,0],[0,1,0],[0.25,1,0],[0.5,1,0],[0.75,1,0],[1,1,0],[0,0.25,0],[0,0.5,0],[0,0.75,0],[1,0.25,0],[1,0.5,0],[1,0.75,0]];outlineConnect=0;fontColor=#232F3E;gradientColor=#60A337;gradientDirection=north;fillColor=#277116;strokeColor=#ffffff;dashed=0;verticalLabelPosition=bottom;verticalAlign=top;align=center;html=1;fontSize=12;fontStyle=1;aspect=fixed;shape=mxgraph.aws4.resourceIcon;resIcon=mxgraph.aws4.s3;" parent="gROJfCUegqSwpk9ElWU_-3" vertex="1">
          <mxGeometry x="188" y="40" width="78" height="78" as="geometry" />
        </mxCell>
        <mxCell id="gROJfCUegqSwpk9ElWU_-7" value="CloudFront&lt;br&gt;Distribution" style="sketch=0;points=[[0,0,0],[0.25,0,0],[0.5,0,0],[0.75,0,0],[1,0,0],[0,1,0],[0.25,1,0],[0.5,1,0],[0.75,1,0],[1,1,0],[0,0.25,0],[0,0.5,0],[0,0.75,0],[1,0.25,0],[1,0.5,0],[1,0.75,0]];outlineConnect=0;fontColor=#232F3E;gradientColor=#945DF2;gradientDirection=north;fillColor=#5A30B5;strokeColor=#ffffff;dashed=0;verticalLabelPosition=bottom;verticalAlign=top;align=center;html=1;fontSize=12;fontStyle=1;aspect=fixed;shape=mxgraph.aws4.resourceIcon;resIcon=mxgraph.aws4.cloudfront;" parent="gROJfCUegqSwpk9ElWU_-3" vertex="1">
          <mxGeometry x="26" y="40" width="78" height="78" as="geometry" />
        </mxCell>
        <mxCell id="gROJfCUegqSwpk9ElWU_-9" value="" style="edgeStyle=orthogonalEdgeStyle;html=1;endArrow=block;elbow=vertical;startArrow=none;endFill=1;strokeColor=#545B64;rounded=0;fontStyle=1" parent="gROJfCUegqSwpk9ElWU_-3" source="gROJfCUegqSwpk9ElWU_-7" target="gROJfCUegqSwpk9ElWU_-5" edge="1">
          <mxGeometry width="100" relative="1" as="geometry">
            <mxPoint x="116" y="209" as="sourcePoint" />
            <mxPoint x="148" y="80" as="targetPoint" />
          </mxGeometry>
        </mxCell>
        <mxCell id="z2Jit_E9ZG0W3tUGCPbE-2" style="edgeStyle=orthogonalEdgeStyle;rounded=0;orthogonalLoop=1;jettySize=auto;html=1;entryX=1;entryY=0.75;entryDx=0;entryDy=0;entryPerimeter=0;" edge="1" parent="gROJfCUegqSwpk9ElWU_-3" source="z2Jit_E9ZG0W3tUGCPbE-1" target="gROJfCUegqSwpk9ElWU_-5">
          <mxGeometry relative="1" as="geometry" />
        </mxCell>
        <mxCell id="z2Jit_E9ZG0W3tUGCPbE-1" value="Read Policy" style="sketch=0;outlineConnect=0;fontColor=#232F3E;gradientColor=none;fillColor=#3F8624;strokeColor=none;dashed=0;verticalLabelPosition=bottom;verticalAlign=top;align=center;html=1;fontSize=12;fontStyle=1;aspect=fixed;pointerEvents=1;shape=mxgraph.aws4.policy;" vertex="1" parent="gROJfCUegqSwpk9ElWU_-3">
          <mxGeometry x="264" y="181" width="78" height="67" as="geometry" />
        </mxCell>
        <mxCell id="z2Jit_E9ZG0W3tUGCPbE-4" style="edgeStyle=orthogonalEdgeStyle;rounded=0;orthogonalLoop=1;jettySize=auto;html=1;entryX=1;entryY=0.75;entryDx=0;entryDy=0;entryPerimeter=0;" edge="1" parent="gROJfCUegqSwpk9ElWU_-3" source="z2Jit_E9ZG0W3tUGCPbE-3" target="gROJfCUegqSwpk9ElWU_-7">
          <mxGeometry relative="1" as="geometry" />
        </mxCell>
        <mxCell id="z2Jit_E9ZG0W3tUGCPbE-3" value="&lt;b&gt;Origin Identity&lt;/b&gt;" style="sketch=0;outlineConnect=0;fontColor=#232F3E;gradientColor=none;fillColor=#4D27AA;strokeColor=none;dashed=0;verticalLabelPosition=bottom;verticalAlign=top;align=center;html=1;fontSize=12;fontStyle=0;aspect=fixed;pointerEvents=1;shape=mxgraph.aws4.cloudfront_functions;" vertex="1" parent="gROJfCUegqSwpk9ElWU_-3">
          <mxGeometry x="104" y="181" width="78" height="78" as="geometry" />
        </mxCell>
        <mxCell id="gROJfCUegqSwpk9ElWU_-10" value="Static Website" style="sketch=0;outlineConnect=0;fontColor=#232F3E;gradientColor=none;fillColor=#3F8624;strokeColor=none;dashed=0;verticalLabelPosition=bottom;verticalAlign=top;align=center;html=1;fontSize=12;fontStyle=1;aspect=fixed;pointerEvents=1;shape=mxgraph.aws4.bucket;" parent="gROJfCUegqSwpk9ElWU_-1" vertex="1">
          <mxGeometry x="428" y="120" width="75" height="78" as="geometry" />
        </mxCell>
        <mxCell id="gROJfCUegqSwpk9ElWU_-11" value="" style="edgeStyle=orthogonalEdgeStyle;html=1;endArrow=block;elbow=vertical;startArrow=none;endFill=1;strokeColor=#545B64;rounded=0;fontStyle=1" parent="gROJfCUegqSwpk9ElWU_-1" source="gROJfCUegqSwpk9ElWU_-5" target="gROJfCUegqSwpk9ElWU_-10" edge="1">
          <mxGeometry width="100" relative="1" as="geometry">
            <mxPoint x="314" y="289" as="sourcePoint" />
            <mxPoint x="398" y="289" as="targetPoint" />
          </mxGeometry>
        </mxCell>
      </root>
    </mxGraphModel>
  </diagram>
</mxfile>
